<svg xmlns="http://www.w3.org/2000/svg" viewBox="0 0 100 100">
  <defs>
    <linearGradient id="g" x1="0" y1="0" x2="1" y2="1">
      <stop offset="0" stop-color="#e7c874"/>
      <stop offset="0.5" stop-color="#c69128"/>
      <stop offset="1" stop-color="#8a5a17"/>
    </linearGradient>
  </defs>
  <rect width="100" height="100" rx="20" fill="#0a422d"/>
  <path d="M50 16c-16 0-29 12-29 30v34h16V44c0-8 5.5-14 13-14s13 6 13 14v36h16V46C79 28 66 16 50 16z" fill="url(#g)"/>
  <path d="M50 26c-11.5 0-21 8.5-21 22v32h9V46c0-7.5 5-13 12-13s12 5.5 12 13v34h9V48c0-13.5-9.5-22-21-22z" fill="#0c5035"/>
  <path d="M50 30l2.2 5.2L57 37l-4.8 1.8L50 44l-2.2-5.2L43 37l4.8-1.8z" fill="url(#g)"/>
  <rect x="48.4" y="46" width="3.2" height="34" rx="1.6" fill="#fff"/>
  <path d="M48 60V50c-4-1-8-5-9-10 5 1 8 4 9 10zM52 60V50c4-1 8-5 9-10-5 1-8 4-9 10z" fill="#fff"/>
</svg>
